<?xml version="1.0" standalone="no"?>
<!DOCTYPE svg PUBLIC "-//W3C//DTD SVG 20010904//EN"
 "http://www.w3.org/TR/2001/REC-SVG-20010904/DTD/svg10.dtd">
<svg version="1.0" xmlns="http://www.w3.org/2000/svg"
 width="1077.000000pt" height="1280.000000pt" viewBox="0 0 1077.000000 1280.000000"
 preserveAspectRatio="xMidYMid meet">
<metadata>
Created by potrace 1.15, written by Peter Selinger 2001-2017
</metadata>
<g transform="translate(0.000000,1280.000000) scale(0.100000,-0.100000)"
fill="#000000" stroke="none">
<path d="M4870 12790 c-582 -60 -1098 -280 -1611 -687 -89 -70 -236 -208 -440
-412 -434 -434 -594 -589 -759 -736 -687 -608 -1200 -874 -1523 -790 -78 20
-115 40 -235 128 -119 88 -156 99 -225 69 -144 -64 -72 -271 148 -427 231
-164 522 -222 825 -165 233 44 547 167 775 305 344 207 547 369 1276 1016 322
285 561 478 754 606 436 291 792 400 1190 364 440 -40 820 -192 1210 -485 192
-145 607 -571 579 -595 -5 -4 -65 -27 -134 -51 -786 -270 -1480 -982 -1892
-1940 -353 -820 -486 -1764 -383 -2705 19 -168 49 -379 75 -530 12 -66 24
-134 27 -152 5 -29 -1 -39 -56 -100 -329 -361 -441 -888 -290 -1360 71 -221
176 -392 343 -558 180 -178 362 -284 602 -350 70 -19 131 -39 135 -43 3 -4 27
-58 53 -120 185 -447 436 -944 670 -1331 31 -51 55 -95 54 -97 -2 -1 -55 6
-118 17 -170 29 -489 37 -640 15 -206 -30 -348 -74 -512 -158 -164 -84 -218
-148 -168 -198 29 -29 58 -25 115 16 116 83 282 151 465 190 144 31 401 42
571 25 96 -10 326 -50 380 -67 14 -4 109 -130 109 -145 0 -3 -53 -9 -117 -12
-353 -17 -738 -201 -1095 -523 -146 -131 -185 -197 -140 -237 37 -33 61 -21
171 86 272 265 553 432 860 513 78 21 127 27 261 31 l165 5 37 -49 37 -48 -58
-7 c-265 -30 -491 -210 -641 -508 -78 -155 -149 -368 -166 -499 -5 -38 -2 -50
16 -68 11 -13 31 -23 43 -23 43 1 57 24 82 131 33 147 68 247 129 374 146 303
359 465 614 465 l87 0 140 -141 c221 -223 392 -341 595 -410 85 -29 107 -33
210 -33 92 0 130 4 190 23 218 67 441 227 685 493 87 94 91 97 142 104 133 16
317 -44 435 -143 157 -131 303 -404 363 -678 9 -44 22 -92 27 -107 20 -53 101
-53 115 1 18 73 -62 342 -163 544 -152 307 -369 474 -667 512 l-47 6 31 44 31
43 82 7 c93 8 244 -7 361 -35 292 -69 599 -250 867 -510 70 -69 121 -110 134
-110 11 0 30 10 42 23 41 44 31 63 -96 188 -243 240 -525 415 -812 507 -126
40 -185 51 -340 65 l-130 12 44 66 44 65 98 23 c385 88 770 83 1060 -14 119
-39 226 -91 303 -146 60 -43 76 -46 109 -23 15 10 22 25 22 49 0 45 -48 86
-188 157 -196 102 -356 144 -626 168 -171 15 -460 -7 -638 -49 -21 -5 -38 -8
-38 -6 0 2 34 60 75 129 181 304 423 781 586 1153 l84 192 70 17 c171 42 330
115 476 221 94 67 244 220 314 318 106 150 193 355 231 550 25 126 25 387 1
510 -52 258 -150 459 -331 680 l-24 30 19 90 c45 216 95 539 125 805 22 200
30 675 15 897 -49 718 -220 1372 -515 1963 -230 460 -466 782 -816 1113 -341
322 -786 572 -1182 663 l-67 15 -55 112 c-106 219 -259 422 -495 657 -546 545
-1221 890 -1941 995 -125 19 -491 27 -610 15z"/>
</g>
</svg>
