<?xml version="1.0"?>
<svg xmlns:rdf="http://www.w3.org/1999/02/22-rdf-syntax-ns#" xmlns="http://www.w3.org/2000/svg" xmlns:cc="http://web.resource.org/cc/" xmlns:xlink="http://www.w3.org/1999/xlink" xmlns:dc="http://purl.org/dc/elements/1.1/" xmlns:svg="http://www.w3.org/2000/svg" id="svg2" viewBox="0 0 582.39 587.87" version="1.0">
  <path id="path2986" d="m33.968 191.28c-11.099 5.81-32.517-3.11-32.517-3.11" stroke="#000" stroke-width="2.9026" fill="none"/>
  <path id="path2984" d="m39.36 184.2c-28.887-7.02-35.995-36.49-35.995-36.49" stroke="#000" stroke-width="2.9026" fill="none"/>
  <path id="path2988" d="m45.488 200.51c-23.835-2-31.847 18.19-31.847 18.19" stroke="#000" stroke-width="2.9026" fill="none"/>
  <path id="path2963" d="m405.84 273.83c-23.81 9.84-56.82 17.75-77.63 5.76 0 0-25.23 55.09-39.87 68.62-15.62 14.42-31.05 24.73-31.05 24.73l-55.07-1.74s1.89 10.84-16.72 16.05c-15.13-13.15-11.71-27.91 4.48-48.23 11.59-14.53 71.36-8.6 71.36-8.6l15.33-32.09c-10.36-10.61-17.64-10.38-33.98-22.01l-11.27 36.19s-50.46 16.17-71.72 37.43-42.52 0-42.52 0l42.52-42.51 42.52-21.26 13.2-38.18s-20.77-27.33-55.96-39.04c-35.19-11.72-84.794-7.82-84.794-7.82s-31.889 5.31-42.519 0c-10.629-5.32 4.054-24.67 4.054-24.67s40.616-20.66 61.875-41.92c21.264-21.26 61.624-60.965 61.624-60.965s-26.67-23.865-5.41-45.124 30.9-17.219 43.06-6.196c16.75 15.201-6.38 41.034-0.18 45.613 8.6-6.837 8.56 14.099 19.17-22.212 10.65-36.406 48.72-56.286 70.92-35.858 21.24 19.542-5.7 60.303-5.7 60.303s89.31-45.227 154.51-39.044 79.72 21.259 106.3 63.777c26.57 42.516-2.65 114.61-2.65 114.61s49.72 26.8 39.75 72.67-50.98 81.72-82.99 97.08c-32.01 15.35-128.92 46.5-150.98 50.58-22.82 4.22-89.91 26.43-116.49 58.32-26.57 31.89 2.83 58.55 21.02 73.82 18.19 15.28 14.8 24.37 14.8 24.37s-42.47-0.34-58.44-14.81c-22.27-20.2-38.51-59.81-18.33-96.58s69.1-68.63 122.02-73.45c53.67-4.89 185.92-63.96 211.46-88.35 25.55-24.39-10.74-64.48-10.74-64.48l-36.39 9.72s7.2 38.92 3.13 43.88c-4.06 4.96-34.57 33.59-34.57 33.59l-70.68 14.14-29.2 7.24s3.43-25.61 24.43-40.03c21-14.43 60.18-7.78 60.18-7.78l-20.61-36.36c-31.89-50.83-34.01-94.48 26.82-124.57" stroke="#000" stroke-width="3.5433" fill="#fff"/>
  <path id="path2965" d="m186.12 112.12c-7.5 0-13.59 5.67-13.59 12.63s6.09 12.59 13.59 12.59c7.51 0 13.6-5.63 13.6-12.59s-6.09-12.63-13.6-12.63zm-4.37 4.07c0.43 0.05 0.82 0.23 1.13 0.53 1.21 1.21 0.74 4.05-1.07 6.37-1.8 2.33-4.28 3.24-5.5 2.03-1.22-1.2-0.74-4.08 1.07-6.4 1.35-1.74 3.08-2.68 4.37-2.53z"/>
  <path id="path2974" d="m150.93 208.18c38.15-6.88 43.91-31.93 43.91-31.93" stroke="#000" stroke-width="3.1897" fill="none"/>
  <path id="path2978" d="m39.291 192.23c31.897-47.85 31.897-63.8 31.897-63.8" stroke="#000" stroke-width="2.9026" fill="none"/>
  <path id="path2980" d="m48.21 196.27c17.551-9.38 37.649-11.6 56.65-6.42" stroke="#000" stroke-width="2.9026" fill="none"/>
  <path id="path2982" d="m51.179 187.68c13.848-5.81 34.778-23.66 51.261-28.54" stroke="#000" stroke-width="2.9026" fill="none"/>
  <path id="path2990" d="m35.346 177.85c-14.882 11.48-4.35 27.97 11.616 24.59l-11.616-24.59z" stroke="#000" stroke-width="4.501px" fill-rule="evenodd"/>
  <path id="path3065" d="m267.57 69.122s-46.81-6.202-46.81-6.202 2.44-14.138 11.33-27.413c8.96-13.394 14.38-21.372 26.97-23.994 12.58-2.6217 18.3 3.776 22.93 12.139 4.63 8.364 1.73 12.912-1.99 23.937-3.71 11.025-12.43 21.533-12.43 21.533z" stroke="#000" stroke-width="3.046" fill="none"/>
  <metadata>
    <rdf:RDF>
      <cc:Work>
        <dc:format>image/svg+xml</dc:format>
        <dc:type rdf:resource="http://purl.org/dc/dcmitype/StillImage"/>
        <cc:license rdf:resource="http://creativecommons.org/licenses/publicdomain/"/>
        <dc:publisher>
          <cc:Agent rdf:about="http://openclipart.org/">
            <dc:title>Openclipart</dc:title>
          </cc:Agent>
        </dc:publisher>
        <dc:title>Mouse</dc:title>
        <dc:date>2007-01-28T09:52:22</dc:date>
        <dc:description>animal, animal, cartoon, cartoon, clip art, clipart, colouring book, colouring book, gray, gray, image, mammal, mammal, media, mouse, mouse, public domain, svg, </dc:description>
        <dc:source>http://openclipart.org/detail/2976/mouse-by-da5id1-2976</dc:source>
        <dc:creator>
          <cc:Agent>
            <dc:title>da5id1</dc:title>
          </cc:Agent>
        </dc:creator>
        <dc:subject>
          <rdf:Bag>
            <rdf:li>animal</rdf:li>
            <rdf:li>cartoon</rdf:li>
            <rdf:li>clip art</rdf:li>
            <rdf:li>clipart</rdf:li>
            <rdf:li>colouring book</rdf:li>
            <rdf:li>gray</rdf:li>
            <rdf:li>image</rdf:li>
            <rdf:li>mammal</rdf:li>
            <rdf:li>media</rdf:li>
            <rdf:li>mouse</rdf:li>
            <rdf:li>public domain</rdf:li>
            <rdf:li>svg</rdf:li>
          </rdf:Bag>
        </dc:subject>
      </cc:Work>
      <cc:License rdf:about="http://creativecommons.org/licenses/publicdomain/">
        <cc:permits rdf:resource="http://creativecommons.org/ns#Reproduction"/>
        <cc:permits rdf:resource="http://creativecommons.org/ns#Distribution"/>
        <cc:permits rdf:resource="http://creativecommons.org/ns#DerivativeWorks"/>
      </cc:License>
    </rdf:RDF>
  </metadata>
</svg>
